# xmcd CD database file
#
# Track frame offsets:
#	150
#	13735
#	25917
#	39287
#	52104
#	65750
#	80812
#	100864
#	114368
#	124421
#	146976
#	165583
#	177085
#	189487
#	205362
#	219602
#	232680
#	246443
#	261695
#	274950
#
# Disc length: 3853 seconds
#
# Revision: 0
# Processed by: cddbd v1.4PL0 Copyright (c) Steve Scherf et al.
# Submitted via: CDex 1.50
#
DISCID=340f0b14
DTITLE=Various Artist - Moonlight Jazz Moods
DYEAR=1999
DGENRE=Jazz
TTITLE0=Coleman Hawlins - Body and Soul
TTITLE1=Erroll Garner - Laura
TTITLE2=Nat King Cole Trio - What Is This Thing Called Love?
TTITLE3=Lee Wiley - Moanin' In The Mornin'
TTITLE4=Benny Goodman Trio - Oh, Lady Be Good!
TTITLE5=Billy Holiday - Yesterdays
TTITLE6=Red Norvo and His Selected Sextet - Slam Slam Blues
TTITLE7=Buddy Bergin, Fats Waller and Others - Blues
TTITLE8=Lionel Hampton and His Orchestra - When Lights Are Low
TTITLE9=Flip Phillips and His Orchestra - Sweet and Lovely
TTITLE10=Edmond Hall Celeste Quartet - Profundly Blue
TTITLE11=Earl Hine and His Orchestra - Deep Forest
TTITLE12=Dianah Washington - I Can't Get Started
TTITLE13=Dule Ellington and His Orchestra - All Too Soon
TTITLE14=The Metronome All Stars w Frank Sinatra - Sweet Lorraine
TTITLE15=Lennie Tristano - (I Don't Stand) A Ghost of A Chance (With You)
TTITLE16=Teddy Wilson Quartet - Ain't Misbehavin'
TTITLE17=Lester Young Quartet - Blue Lester
TTITLE18=John Kirby Sextet - Undecided
TTITLE19=June Christy - Willow Weep For Me
EXTD=YEAR: 1999
EXTT0=
EXTT1=
EXTT2=
EXTT3=
EXTT4=
EXTT5=
EXTT6=
EXTT7=
EXTT8=
EXTT9=
EXTT10=
EXTT11=
EXTT12=
EXTT13=
EXTT14=
EXTT15=
EXTT16=
EXTT17=
EXTT18=
EXTT19=
PLAYORDER=
